<svg width="1111" height="216" viewBox="0 0 1111 216" fill="none" xmlns="http://www.w3.org/2000/svg">
<path d="M48.5827 57.8414C54.2487 56.371 59.8537 54.6088 65.5072 53.0765C77.2247 49.8537 89.0333 46.9707 100.918 44.4309C104.254 43.7167 110.654 42.001 113.874 42.1642C116.063 42.2753 118.395 43.0851 120.561 43.5193C128.663 45.1452 136.656 46.9589 144.676 48.9577C151.2 50.591 157.705 52.2974 164.19 54.0772C166.9 54.8208 169.912 55.3761 172.49 56.4608C174.459 56.98 176.465 57.4679 178.387 58.1451C180.522 76.1648 181.968 92.4238 180.904 110.62C180.195 119.751 179.155 128.817 176.382 137.59C175.602 140.056 174.773 142.589 173.746 144.963C165.651 163.681 149.47 178.39 132.429 188.995C126.316 192.8 119.928 196.1 113.541 199.414C92.4213 188.981 72.0563 175.555 58.7724 155.646C53.9313 148.37 50.4276 140.29 48.4257 131.785C44.0916 114.03 44.8702 91.1913 46.64 73.049C47.1313 68.0152 47.5874 62.7955 48.5827 57.8414Z" fill="url(#paint0_linear_543_1159)"/>
<path d="M172.49 56.4609C174.459 56.9801 176.465 57.468 178.387 58.1453C180.522 76.1649 181.968 92.424 180.904 110.62L180.616 110.561C180.39 109.244 181.004 107.987 180.889 106.735C180.83 106.099 180.167 105.608 180.147 104.926C180.121 104.03 180.423 103.09 180.433 102.171C180.46 99.6693 180.276 97.1615 180.238 94.6601C180.216 93.2848 180.326 91.9064 180.295 90.5334C180.261 89.0147 179.637 87.4272 179.404 85.92C179.181 84.4771 179.358 82.8502 179.394 81.3888C179.343 81.3086 179.29 81.2291 179.239 81.1487C179.169 81.0379 179.107 80.9223 179.033 80.8137C178.393 79.8682 178.545 78.8781 178.351 77.7928C177.789 74.6553 176.829 66.9891 175.753 64.3315C175.131 62.7956 173.844 60.99 172.829 59.6741C172.455 59.1904 171.113 58.4221 171.042 57.9352C171.587 57.3445 172.564 57.3649 173.315 57.301L173.391 57.1398C173.074 56.9986 172.755 56.8789 172.43 56.7579L172.49 56.4609Z" fill="#028ED5"/>
<path d="M112.421 50.8533C116.058 50.5094 121.455 52.0035 125.162 52.7768C135.529 54.9235 145.821 57.4211 156.018 60.2648C161.174 61.6644 166.365 63.0418 171.458 64.6524C171.677 69.662 172.597 74.7214 173 79.7329C174.183 94.4458 174.397 110.598 171.744 125.146C167.521 148.307 153.268 165.355 134.238 178.48C132.526 172.295 131.093 166.006 129.455 159.796C128.962 157.929 128.49 156.053 127.963 154.195C127.362 152.074 126.571 149.949 126.431 147.735C126.045 141.645 127.282 134.722 127.397 128.525C131.331 131.393 132.999 135.238 134.323 139.838C134.756 141.341 135.245 143.007 135.433 144.559C135.653 146.391 135.118 148.352 135.994 150.075C136.454 150.996 137.272 151.688 138.257 151.99C139.427 152.353 140.724 152.174 141.784 151.574C142.884 150.952 143.673 149.966 144.001 148.744C144.496 146.896 144.03 144.857 143.71 143.012C142.753 137.518 141.398 131.99 138.495 127.163C134.125 119.9 128.445 116.347 119.99 115.327C116.048 114.851 112.241 114.708 108.36 113.714C100.095 111.597 94.7831 105.933 90.5727 98.8155C92.1117 97.1092 93.0961 95.3507 94.1803 93.3436C97.2781 92.7561 99.06 91.749 101.886 90.9156C103.083 90.5624 104.402 90.5474 105.625 90.285C110.596 89.2191 114.674 85.8725 117.388 81.6787C117.595 81.3377 117.782 80.9753 117.968 80.6228C118.504 79.6093 119.31 78.1335 118.883 76.9699C118.326 75.4481 114.952 74.4267 113.565 73.8139C113.786 73.1756 113.957 72.5115 114.151 71.8639C108.368 69.5202 102.281 67.7047 96.3739 65.6697C93.3352 64.623 88.8771 62.7133 85.8697 62.1657C85.1336 62.5654 84.9949 63.4617 84.7664 64.2137C83.3578 63.7044 81.6593 62.8499 80.1615 62.8036C79.4922 62.7832 78.8852 63.1456 78.4406 63.623C76.9534 65.2195 76.7108 68.7156 76.7712 70.8105C76.8838 74.7032 78.0999 78.6032 80.4159 81.7509C81.2604 82.8982 82.2506 83.9359 83.1193 85.0653C84.7651 87.2053 86.0804 89.1763 88.0643 91.0669C87.294 92.8001 86.5521 94.5515 85.6629 96.2282C84.7964 96.3074 83.8922 96.3534 83.0442 96.5539C81.8565 96.8345 80.7413 97.4291 80.1053 98.5048C79.1547 100.113 79.4424 102.135 79.8604 103.86C78.837 104.285 77.617 104.461 76.6683 105.017C75.5822 105.654 75.4537 106.538 75.1859 107.667C78.6068 109.764 85.0892 111.975 89.034 113.557C89.4265 113.272 89.7653 112.931 90.1185 112.6C92.4719 116.017 95.8226 118.829 99.2691 121.099C100.7 122.042 103.115 123.087 104.134 124.439C104.614 126.549 103.767 143.071 103.447 145.951C103.357 146.769 103.24 147.545 102.887 148.298C100.97 152.383 97.1781 155.731 95.7462 160.023C95.0842 162.008 94.8825 164.28 94.5377 166.346C93.8895 170.411 93.1975 174.47 92.462 178.521C83.7378 172.327 75.3917 165.128 68.849 156.619C63.6068 149.87 59.6076 142.243 57.0385 134.095C50.3615 113.004 52.7469 86.1931 55.6005 64.534C61.052 63.2682 66.4563 61.377 71.858 59.8775C80.7787 57.4198 89.7736 55.2399 98.8299 53.3407C103.338 52.409 107.856 51.4642 112.421 50.8533Z" fill="url(#paint1_linear_543_1159)"/>
<path d="M119.343 92.1158C125.16 91.5771 130.3 95.8839 130.782 101.7C131.263 107.517 126.902 112.609 121.075 113.033C115.329 113.45 110.318 109.166 109.843 103.431C109.368 97.6947 113.606 92.6471 119.343 92.1158Z" fill="url(#paint2_linear_543_1159)"/>
<path d="M114.856 153.417C115.775 154.63 116.786 158.249 117.369 159.866C120.268 167.806 123.01 175.803 125.595 183.85C122.788 185.33 120.067 187.038 117.307 188.61C116.229 189.225 115.085 189.97 113.938 190.442C113.427 190.652 113.243 190.521 112.76 190.331C109.113 188.126 105.199 186.323 101.525 184.124L104.128 172.387C104.74 169.616 105.27 165.263 106.624 162.899C108.413 159.774 112.308 156.128 114.856 153.417Z" fill="url(#paint3_linear_543_1159)"/>
<path d="M111.953 77.5371C113.2 77.8031 114.189 78.3015 115.25 78.9759C113.824 82.5288 111.316 84.8882 107.949 86.6188C107.092 87.0514 106.211 87.3609 105.307 87.6757C108.189 84.6522 110.177 81.2941 111.953 77.5371Z" fill="#86D7F8"/>
<path d="M80.5508 66.8174C81.6941 66.992 82.5922 67.5071 83.5652 68.0914C82.5034 72.039 82.1853 75.7474 82.5772 79.8128L82.5813 79.9488L82.4653 80.0523C81.8079 79.4047 81.3891 78.2891 80.996 77.457C79.4695 74.2265 79.3276 70.1532 80.5508 66.8174Z" fill="#7CD4F7"/>
<path d="M167.666 55.959C168.072 56.1068 168.163 56.0819 168.374 56.4501L168.231 56.9249C167.929 56.7671 167.702 56.6477 167.474 56.3913L167.666 55.959Z" fill="#1098DC"/>
<path d="M186.133 31.7617C193.57 36.452 198.332 41.2291 200.306 50.0669C200.779 52.1813 201.028 54.3506 201.575 56.4482C202.298 59.2236 203.445 61.9431 204.431 64.6371C205.221 66.7946 205.9 69.0042 206.738 71.1407C206.735 71.0816 206.733 71.0225 206.729 70.9635C206.528 68.0022 205.492 65.0356 204.906 62.1254C203.468 54.9794 205.202 47.2768 208.075 40.6799C212.483 47.4125 214.22 55.0174 212.548 62.9479C211.82 66.4006 210.309 69.5665 209.398 72.9543C209.018 74.3669 208.656 75.9277 208.686 77.3991C208.732 79.6288 209.353 82.0344 209.701 84.2411C210.153 87.1126 210.417 90.1138 211.116 92.9304C211.163 89.9136 210.922 86.8831 211.011 83.8778C211.253 75.6531 215.064 69.1504 219.664 62.6168C222.001 73.0006 222.51 79.3577 216.825 88.8509C215.289 91.4153 213.372 94.0646 212.529 96.9495C211.684 99.8385 212.173 103.283 212.16 106.281C212.148 109.116 212.026 111.949 212.15 114.785L212.197 114.589C212.854 111.716 212.951 108.687 213.452 105.777C214.849 97.6452 219.601 91.7189 225.278 86.0631C225.91 97.0715 225.388 103.586 218.138 112.488C216.098 114.994 213.728 117.369 212.355 120.337C211.323 122.569 211.116 125.172 210.699 127.57C210.417 129.12 210.086 130.66 209.706 132.189C209.423 133.154 208.841 134.497 208.86 135.478C209.456 134.551 209.825 133.406 210.151 132.354C211.192 129.805 212.129 127.107 213.399 124.665C216.48 118.735 221.828 114.527 227 110.492C226.636 113.003 226.426 115.505 225.927 118C224.389 125.675 220.378 131.312 214.162 135.954C206.491 141.682 207.332 141.792 203.319 150.124C202.189 152.47 200.773 154.661 199.696 157.022L199.712 157.135C201.62 154.958 202.953 152.161 204.633 149.79C210.32 141.76 216.045 138.83 224.707 134.989C221.215 144.77 217.559 151.664 207.72 156.333C200.459 159.779 198.023 159.426 193.289 166.541C192.211 167.82 191.311 169.235 190.217 170.505C188.614 172.366 186.82 174.006 185.096 175.749C187.287 174.445 192.106 170.174 193.926 168.163C200.412 162.137 206.969 160.172 215.649 159.634C209.115 169.077 203.459 174.932 191.658 177.09C187.776 177.8 184.254 178.071 180.772 180.134C178.894 181.353 177.156 182.829 175.346 184.151C173.619 185.412 171.802 186.506 169.937 187.547C169.495 187.793 167.75 188.648 167.653 189.056C169.249 188.487 170.771 187.577 172.286 186.816C175.825 185.036 179.371 183.342 183.22 182.325C186.932 181.418 190.843 181.374 194.645 181.6C196.031 181.683 197.433 181.897 198.821 181.874C193.55 188.133 186.342 192.731 178.085 193.453C174.077 193.803 170.489 193.183 166.54 192.863C162.118 192.503 154.42 196.24 150.352 198.282C152.579 197.838 154.781 197.209 157.016 196.822C161.503 196.045 166.83 196.349 171.165 197.689C173.398 198.379 175.471 199.524 177.711 200.18C170.959 204.935 165.743 206.992 157.344 205.547C153.033 204.806 149.253 202.844 145.352 200.979C140.362 202.705 135.349 204.358 130.311 205.936C126.691 207.037 122.914 207.938 119.357 209.203C121.343 210.094 123.516 210.618 125.573 211.332C128.186 212.239 130.932 213.5 133.65 214.015C131.964 214.613 130.051 215.503 128.26 215.647C126.07 215.823 116.556 212.106 113.796 211.154C108.793 212.564 103.977 214.574 98.9901 216C97.1318 215.353 95.2517 214.77 93.3535 214.252L101.715 211.259C103.642 210.581 105.638 209.962 107.512 209.15C98.651 207.027 90.0607 203.705 81.3464 201.064C75.7827 203.733 71.3054 205.901 64.948 205.916C62.1423 205.941 59.353 205.489 56.6994 204.578C53.8768 203.595 51.1405 202.02 48.7644 200.218C48.8258 200.202 48.8874 200.186 48.9488 200.169C51.1248 199.574 53.1471 198.479 55.2991 197.798C60.2527 196.232 65.8951 196.069 70.9694 197.116C72.8019 197.494 74.5553 198.087 76.3628 198.544C72.9594 196.572 67.047 193.441 63.2796 192.861C60.3607 192.412 57.378 193.302 54.4617 193.473C42.3297 194.186 35.522 190.273 27.4223 181.756C40.3422 180.394 43.721 181.04 55.1217 187.18C56.1452 187.772 57.3246 188.596 58.4701 188.899C57.5838 188.106 56.5006 187.498 55.4983 186.861C50.8547 184.165 47.3462 179.92 42.0497 178.35C39.033 177.455 35.8499 177.293 32.7866 176.616C23.0709 174.471 16.4972 167.732 11.2742 159.645C13.3326 160.158 15.6572 160.181 17.7734 160.582C22.6826 161.512 27.7231 163.428 31.6187 166.611C33.3095 167.993 34.8415 169.602 36.4831 171.048C37.9898 172.542 39.5902 174.444 41.3002 175.663L41.3417 175.473C40.7085 174.614 38.5124 171.816 37.7261 171.294C36.8618 170.002 35.7527 168.815 34.8108 167.57C31.7248 163.49 30.2779 160.986 25.3582 158.853C22.7238 157.71 19.9763 156.892 17.4375 155.523C9.36728 151.173 4.76211 143.378 2.22683 134.836C7.93152 137.252 14.1006 140.392 18.4073 144.904C19.9015 146.469 21.1615 148.262 22.4256 150.015C24.1011 152.337 25.5515 155.116 27.4885 157.21C27.5265 157.251 27.5655 157.291 27.6039 157.331C26.4244 155.177 25.1009 153.095 24.0065 150.893C22.2166 147.292 21.0608 143.446 18.4769 140.28C16.595 137.974 13.6301 136.522 11.3007 134.69C5.74624 130.322 2.48701 124.498 1.10814 117.603C0.655871 115.342 0.456746 113.04 0 110.779C6.02655 115.613 12.6968 120.455 15.2963 128.098C15.9577 130.042 17.0939 134.516 18.2139 136.004C18.2324 135.063 16.7593 129.863 16.4547 128.56C15.9036 126.202 15.8519 123.688 15.1688 121.377C14.2291 118.196 11.7622 115.859 9.67093 113.402C8.36078 111.862 7.08771 110.241 5.96358 108.56C2.46144 103.324 1.38111 98.0428 1.43864 91.8192C1.45622 89.9034 1.48179 87.9339 1.85064 86.0503C7.0241 91.8926 11.2067 96.3083 12.972 104.285C13.5295 106.804 13.7238 109.392 14.2716 111.909L14.3077 112.07C14.4356 112.748 14.5005 113.409 14.9029 113.987C15.4156 112.729 15.4788 111.383 16.0181 110.13C16.112 111.672 16.159 113.217 16.1587 114.762C16.5975 113.042 16.836 111.287 17.2326 109.559C18.4971 104.05 20.8096 100.012 25.0088 96.2441C26.7095 94.7179 28.6577 93.4263 30.306 91.8629C29.7006 96.4038 29.3775 101.316 27.4866 105.538C26.5181 107.701 25.1648 109.753 23.7073 111.615C21.9823 113.82 17.8578 117.612 17.2227 120.105C16.4032 123.319 19.0062 133.211 20.031 136.57C19.4278 127.714 20.8243 121.458 26.8198 114.622C27.8346 113.465 28.9664 112.382 29.9189 111.177C29.6654 112.796 29.9199 114.576 30.0055 116.212C30.1852 119.641 30.1216 122.882 29.342 126.248C28.8833 128.229 28.0887 130.152 27.1513 131.952C25.5068 135.112 22.1737 139.215 22.524 142.897C22.6906 144.648 23.6852 146.482 24.382 148.075C25.6503 150.975 27.0688 154.021 28.9281 156.595L29.07 156.789C26.5475 150.179 26.1994 143.412 29.1668 136.846C30.2711 134.403 31.7258 131.995 33.3351 129.848C34.4682 134.951 36.0081 140.6 35.6741 145.846C35.5191 148.277 35.0454 150.66 34.5116 153.032C34.0488 155.09 32.458 158.639 32.8147 160.635C33.3741 163.762 37.1942 168.149 39.2715 170.635C40.4928 172.142 41.7566 173.654 43.131 175.024C42.1612 173.549 41.3449 172.066 40.5788 170.474C37.1987 162.491 38.5408 155.727 40.3748 147.65C43.6884 153.105 46.363 157.313 47.5578 163.797C47.9359 165.849 47.9097 168.124 47.8141 170.209C47.7071 172.541 46.7779 176.067 47.9624 178.17C49.9016 181.614 54.8619 184.446 58.1365 186.55C58.8793 187.027 59.7359 187.84 60.5653 188.084C60.5218 187.887 57.6135 185.144 57.2185 184.68C53.6118 180.443 51.961 174.805 51.9229 169.293C51.9089 167.262 52.1572 165.173 52.3151 163.147C56.9538 167.691 61.6092 173.071 63.7082 179.291C64.9199 182.881 65.5575 186.712 66.2978 190.423C67.5546 191.126 68.9798 191.653 70.2886 192.265C76.5038 195.169 81.4887 196.885 87.9595 199.03C94.1605 201.087 100.301 203.148 106.601 204.895C108.406 205.396 110.203 206.167 112.026 206.563C112.714 206.713 113.314 206.698 114.006 206.586C116.972 206.105 120.068 204.921 122.962 204.081C132.246 201.386 141.609 198.482 150.584 194.883C153.997 193.514 157.607 191.975 160.707 189.991C161.533 187.222 161.878 184.264 162.629 181.454C164.761 173.475 169.374 168.285 174.849 162.422C174.837 164.354 175.059 166.286 175.038 168.222C174.972 174.621 173.272 180.679 168.836 185.425C168.205 186.1 165.857 187.72 165.637 188.365C166.264 188.203 170.621 185.308 171.458 184.799C173.49 183.563 177.962 180.678 179.032 178.564C180.213 176.233 179.342 172.587 179.247 170.054C178.93 161.592 181.718 154.495 186.585 147.711C187.035 149.357 187.503 151.011 187.871 152.678C189.738 161.118 188.667 167.537 184.022 174.822C187.994 170.973 191.564 166.78 194.134 161.858C193.991 156.992 191.962 152.579 191.54 147.766C191.181 143.679 191.6 139.678 192.327 135.659C192.68 133.705 193.16 131.708 193.303 129.728L193.319 129.492C194.858 131.846 196.383 134.211 197.581 136.763C200.833 143.691 200.252 150.052 197.735 157.06C199.707 154.225 201.21 151.105 202.585 147.948C203.247 146.429 204.201 144.728 204.414 143.074C204.557 141.965 204.324 140.856 203.943 139.818C203.469 138.526 202.721 137.316 202.057 136.112C200.447 133.191 198.644 130.156 197.732 126.932C196.218 121.586 196.977 116.499 197.11 111.09L197.253 111.228C201.85 115.733 205.842 121.491 206.708 127.996C207.081 130.801 206.977 133.743 207.014 136.573C207.887 133.282 208.693 130.016 209.364 126.677C209.594 125.087 209.746 123.487 209.91 121.888C209.85 121.154 209.787 120.464 209.474 119.785C208.687 118.075 207.31 116.649 206.11 115.226C203.67 112.333 201.112 109.366 199.573 105.872C197.579 101.346 197.243 96.4485 196.851 91.5871C206.254 98.9008 208.604 102.895 210.659 114.464C210.736 112.041 210.797 109.618 210.842 107.194C210.828 104.321 210.62 101.52 210.125 98.6913C209.156 96.8837 207.31 95.6869 205.797 94.3625C197.735 87.3061 194.757 83.546 192.245 72.8681C203.218 78.5348 206 82.059 209.823 93.8506C209.8 91.157 207.974 81.1458 206.883 78.6204C206.646 78.0699 206.309 77.6178 205.89 77.1925C204.233 75.5104 201.756 74.4563 199.751 73.2337C192.804 68.9975 189.19 62.856 187.426 55.0458C187.469 55.079 187.511 55.1132 187.555 55.1454C189.277 56.4255 191.458 57.2257 193.327 58.3046C199.778 62.0296 202.38 66.095 205.599 72.544C205.285 71.0114 204.7 69.5192 204.183 68.045C202.729 63.9065 201.268 59.6588 198.325 56.3115C194.862 52.3741 190.973 49.3545 188.781 44.3864C186.995 40.3402 186.633 36.0905 186.133 31.7617Z" fill="url(#paint4_linear_543_1159)"/>
<path d="M210.125 98.6914C210.574 98.9529 210.783 99.4897 210.928 99.9833C211.286 101.203 211.412 106.128 210.842 107.194C210.828 104.321 210.62 101.52 210.125 98.6914Z" fill="#0062AE"/>
<path d="M209.91 121.889C210.368 122.602 210.248 124.933 210.054 125.832C209.981 126.169 209.867 126.458 209.543 126.625C209.488 126.653 209.424 126.66 209.364 126.678C209.594 125.087 209.746 123.487 209.91 121.889Z" fill="#0062AE"/>
<path d="M112.373 0.0315133C113.318 -0.0292505 114.251 -0.0229274 115.169 0.240499C116.704 0.681077 117.931 1.66358 118.69 3.06855C119.428 4.43374 119.671 6.05495 119.193 7.54649C118.623 9.32652 117.371 10.3585 115.772 11.1775C115.741 12.0241 115.668 12.9129 115.742 13.7567C115.968 16.3081 117.515 18.6406 119.462 20.2464C120.755 21.3119 122.392 22.0933 124.103 21.8726C125.185 21.7331 126.135 21.2034 126.763 20.302C127.727 18.9175 127.033 18.1288 126.82 16.6494C126.701 15.8253 126.911 14.991 127.443 14.3457C128.023 13.6419 128.902 13.058 129.827 12.985C131.28 12.8704 132.334 13.7384 133.337 14.6441C133.563 15.3004 133.782 16.0067 133.748 16.7095C133.672 18.2658 132.254 19.2377 131.182 20.1663L131.308 20.4482C132.088 22.1536 133.194 23.6856 135.041 24.3306C136.578 24.8674 138.481 24.6713 139.925 23.9472C141.867 22.9726 142.922 21.3202 143.539 19.3092C143.279 18.5602 142.931 17.8187 142.805 17.0332C142.622 15.8943 142.79 14.7628 143.486 13.8218C145.191 11.5173 149.264 11.0756 151.869 10.6677C149.841 15.7503 148.047 20.9658 146.177 26.1101C144.445 30.8729 142.616 35.5932 140.947 40.3799C138.313 39.9948 135.67 39.2594 133.064 38.7061C127.337 37.4905 119.64 35.9799 113.919 35.6168C109.911 35.938 105.907 36.6903 101.945 37.3755C96.4709 38.3223 91.0005 39.2805 85.6314 40.725C83.6795 35.8109 82.0152 30.7535 80.2486 25.7688L74.8169 10.7232C77.3541 10.7121 80.4081 11.1853 82.5199 12.7022C86.3583 15.4597 83.5437 17.9519 83.9534 20.096C84.2123 21.4502 85.1728 22.6211 86.3027 23.3647C87.8375 24.3795 89.7198 24.7259 91.5158 24.3239C93.12 23.9615 94.2166 22.9845 95.0582 21.5824C96.1315 19.7946 94.5541 19.5257 93.7132 18.2421C93.3843 17.7402 93.2692 16.9882 93.1321 16.408C93.2609 16.0041 93.4031 15.6066 93.5869 15.2237C94.0232 14.3151 94.7523 13.5488 95.7281 13.2277C96.6458 12.9257 97.6657 13.0586 98.4973 13.5403C99.3408 14.0225 99.943 14.8367 100.156 15.7841C100.446 17.0843 100.009 18.1473 99.3105 19.2192C99.6084 19.6541 99.9104 20.074 100.287 20.446C101.183 21.3308 102.366 21.8736 103.639 21.8282C105.617 21.7577 107.401 20.4003 108.66 18.9666C110.723 16.6191 111.319 14.3013 111.135 11.2161C111.039 11.1704 110.942 11.1259 110.846 11.0791C109.411 10.3765 108.315 9.15672 107.834 7.62807C107.345 6.07561 107.491 4.24114 108.298 2.81962C109.217 1.20311 110.65 0.491249 112.373 0.0315133Z" fill="url(#paint5_linear_543_1159)"/>
<path d="M19.2088 40.8788C21.3093 47.5028 23.3156 54.0313 22.3235 61.0806C22.1244 62.4942 20.3434 69.6728 20.4687 70.359C21.4442 69.0134 22.1391 65.5471 22.7608 63.8452C23.5934 61.5666 24.6887 59.3506 25.3408 57.0108C26.0104 54.6073 26.2386 52.0778 26.8248 49.6485C28.9637 40.784 33.7316 36.9041 40.8912 31.9443C39.8192 36.5883 39.8016 41.0956 37.6569 45.5001C35.7504 49.4154 32.2348 52.4677 29.3198 55.6195C25.9935 59.2162 24.365 63.4882 22.8228 68.052C22.3232 69.5301 21.768 71.0263 21.4356 72.552C26.199 62.7927 29.9818 60.2782 39.5913 55.5525C37.8126 59.7699 37.454 63.332 34.5093 67.2151C32.1057 70.3845 28.8669 72.5153 25.4821 74.5068C23.8942 75.4411 21.931 76.3482 20.7522 77.7959C20.0379 78.6737 19.7726 79.8823 19.4328 80.9436C18.7169 84.2325 18.1297 87.5229 17.5112 90.8293L17.4205 91.2962C17.2734 91.1001 17.1577 90.9254 17.0746 90.693C16.894 90.1878 16.7294 89.8708 16.3813 89.4589C16.6533 87.2135 17.1302 84.9688 17.5304 82.7413C17.867 81.0947 18.2451 79.3711 18.2591 77.6835C18.3071 71.9469 14.6589 65.9321 14.0414 60.0129C13.3538 53.4234 14.9993 46.1116 19.2088 40.8788Z" fill="url(#paint6_linear_543_1159)"/>
<path d="M17.5304 82.7411L17.8353 82.9885C17.9708 83.3126 18.0594 83.51 18.0201 83.8641L17.8273 83.9145C17.7417 83.5262 17.8005 83.6967 17.6698 83.3969L17.5966 83.6888C17.6733 83.8973 17.7263 84.1096 17.8612 84.2881L18.146 84.085C18.1965 83.4119 18.4512 82.7123 18.4803 82.0881C18.4832 82.0297 18.4787 81.9706 18.4778 81.9118C18.5436 81.8279 18.6165 81.7484 18.6753 81.6593C18.8303 81.4246 18.9368 81.1675 19.1094 80.9277L19.4328 80.9434C18.7169 84.2322 18.1297 87.5227 17.5112 90.8291L17.4205 91.2959C17.2734 91.0998 17.1577 90.9252 17.0746 90.6927C16.894 90.1876 16.7294 89.8705 16.3813 89.4586C16.6533 87.2133 17.1302 84.9685 17.5304 82.7411Z" fill="#0062AE"/>
<path d="M7.56098 62.6953C15.5229 74.6399 15.8514 78.2135 15.854 92.3885C16.0832 91.4258 16.2193 90.435 16.3817 89.4585C16.7298 89.8704 16.8944 90.1875 17.075 90.6926C17.1581 90.9251 17.2738 91.0997 17.4208 91.2958C17.3051 92.0439 17.2466 92.7969 17.1798 93.5504L18.0364 90.6317C21.5079 80.4937 25.9545 78.3652 34.6953 73.2959C31.7004 84.4077 29.2169 87.7847 20.5078 95.0588C19.3654 96.0126 17.54 97.1883 16.9263 98.5772C15.6028 101.572 15.9908 106.821 16.0183 110.13C15.4791 111.383 15.4158 112.729 14.9031 113.987C14.8098 112.856 14.7174 111.728 14.5806 110.601C14.6218 108.475 14.9293 98.8177 14.6186 97.5494C13.6815 93.7248 10.5856 89.827 8.80145 86.2709C4.92023 78.5354 4.88347 70.8341 7.56098 62.6953Z" fill="url(#paint7_linear_543_1159)"/>
<path d="M180.773 180.134L181.009 180.362C180.91 180.973 180.405 181.229 180.362 181.835C180.58 182.105 180.682 182.262 181.072 182.278C181.935 182.315 182.293 181.955 183.22 182.325C179.371 183.342 175.825 185.036 172.286 186.816C170.771 187.577 169.249 188.487 167.653 189.055C167.75 188.648 169.495 187.793 169.937 187.546C171.803 186.506 173.619 185.412 175.346 184.151C177.156 182.829 178.894 181.353 180.773 180.134Z" fill="#FBF8F7" fill-opacity="0.0392157"/>
<path d="M193.289 166.541C193.738 167.149 193.923 167.396 193.926 168.163C192.106 170.174 187.287 174.445 185.096 175.749C186.82 174.006 188.614 172.366 190.218 170.505C191.311 169.235 192.211 167.82 193.289 166.541Z" fill="#FBF8F7" fill-opacity="0.0156863"/>
<path d="M36.4829 171.048L36.8706 170.882C36.9304 170.92 36.9889 170.959 37.0496 170.995C37.2746 171.13 37.4798 171.209 37.7259 171.293C38.5122 171.815 40.7084 174.614 41.3415 175.473L41.3 175.663C39.59 174.443 37.9896 172.542 36.4829 171.048Z" fill="#FBF8F7" fill-opacity="0.0117647"/>
<path d="M39.2715 170.635C39.3376 170.62 39.4025 170.595 39.4703 170.59C39.8868 170.56 40.1594 170.594 40.5788 170.474C41.3449 172.066 42.1612 173.549 43.131 175.024C41.7566 173.653 40.4928 172.142 39.2715 170.635Z" fill="#7B7068" fill-opacity="0.0117647"/>
<path d="M55.4981 186.861C56.5005 187.498 57.5837 188.106 58.47 188.898C57.3244 188.596 56.145 187.772 55.1216 187.18L55.4981 186.861Z" fill="#FBF8F7" fill-opacity="0.0666667"/>
<path d="M209.706 132.188L210.151 132.353C209.825 133.405 209.456 134.55 208.86 135.478C208.841 134.497 209.423 133.153 209.706 132.188Z" fill="#FBF8F7" fill-opacity="0.0235294"/>
<path d="M26.7876 133.396C27.4294 133.408 27.6979 133.382 28.2224 133.782C28.3896 134.267 28.3899 134.267 28.2064 134.747C28.1658 134.615 28.0798 134.317 28.0153 134.203C27.8433 133.9 27.3 133.802 26.9826 133.762C26.9215 133.754 26.8595 133.758 26.7981 133.757L26.7876 133.396Z" fill="#060508" fill-opacity="0.0196078"/>
<path d="M14.5803 110.602C14.7171 111.728 14.8094 112.856 14.9028 113.987C14.5004 113.409 14.4355 112.748 14.3076 112.069C14.547 111.627 14.5349 111.099 14.5803 110.602Z" fill="#FBF8F7" fill-opacity="0.0235294"/>
<path d="M17.5115 90.8292L18.0363 90.6318L17.1797 93.5506C17.2465 92.797 17.305 92.0441 17.4207 91.296L17.5115 90.8292Z" fill="#FBF8F7" fill-opacity="0.0235294"/>
<path d="M209.061 120.166L209.181 120.239C209.232 120.663 209.021 120.955 208.825 121.313C208.74 121.19 208.794 121.247 208.626 121.135C208.58 121.104 208.534 121.075 208.487 121.045C208.668 120.743 208.863 120.457 209.061 120.166Z" fill="url(#paint8_linear_543_1159)"/>
<path d="M720.577 52.5792C729.091 52.3202 737.737 52.4002 746.251 52.6052C753.207 68.9212 758.631 86.2662 764.54 102.997C767.057 110.121 769.329 117.442 772.527 124.292C771.527 115.821 771.858 107.188 771.953 98.6732C772.124 83.3862 772.721 67.8752 771.985 52.6082L792.717 52.5762C792.294 89.9322 792.976 127.298 792.726 164.655C784.372 164.348 775.929 164.589 767.565 164.581C762.319 152.635 758.321 139.75 753.868 127.464C749.632 115.777 744.719 104.1 741.257 92.1702C740.357 98.5823 741.235 106.953 741.257 113.59L741.462 164.598C734.577 164.573 727.691 164.594 720.807 164.661C720.927 127.301 720.851 89.9392 720.577 52.5792Z" fill="#0062AE"/>
<path d="M969.281 51.5986C981.65 51.6766 1006.63 50.3885 1017.54 52.7655C1023.05 53.9675 1027.13 56.5895 1030.15 61.4165C1035.62 70.1705 1035.78 96.0905 1033.24 105.905C1031.24 113.618 1027.51 116.164 1021 119.959C1025.49 134.626 1031.34 149.349 1036.94 163.64C1029.36 164.133 1021.43 163.642 1013.81 163.633L1012.21 158.73C1008.19 146.137 1003.94 133.618 999.467 121.179L990.395 121.104C990.404 135.191 989.726 149.679 990.712 163.716C983.591 163.638 976.468 163.614 969.346 163.643L969.281 51.5986ZM990.984 103.192C996.567 103.153 1005.99 104.237 1010.67 100.911C1014.2 94.6026 1014.69 82.4206 1012.66 75.4786C1012.1 73.5386 1011.12 71.5256 1009.28 70.5116C1004.96 68.1286 996.236 69.6475 991.363 69.3225C991.234 80.5045 991.858 92.0606 990.984 103.192Z" fill="#0062AE"/>
<path d="M347.348 52.2024C354.696 52.3274 362.045 52.3244 369.392 52.1934L369.43 97.6104L391.42 97.6134C391.295 82.5344 391.683 67.4174 391.264 52.3454L413.111 52.3324C412.597 78.0154 412.83 103.765 412.944 129.454C412.993 140.601 413.315 151.752 413.063 162.896L412.974 163.16C410.483 164.436 395.035 163.649 391.383 163.642L391.371 117.125C384.046 116.928 376.676 117.112 369.347 117.128L369.406 163.798C362.099 163.585 354.645 163.425 347.353 163.978L347.348 52.2024Z" fill="#0062AE"/>
<path d="M449.517 52.2822C458.825 52.4032 468.134 52.4312 477.443 52.3682C481.526 70.9842 485.496 89.6252 489.353 108.289C493.2 126.856 496.829 145.586 501.513 163.959C493.88 163.592 486.129 163.739 478.494 164.045C477.132 158.719 476.385 153.186 475.458 147.768C475.3 146.393 475.327 144.933 474.439 143.809C466.965 142.952 458.917 143.577 451.378 143.638C449.978 150.283 448.884 156.997 447.716 163.687C440.49 163.487 433.225 163.634 425.995 163.633C428.641 145.92 433.482 127.562 437.202 109.938C441.234 90.8282 444.465 71.1162 449.517 52.2822ZM454.105 125.624L462.727 125.499C465.739 125.524 468.753 125.589 471.763 125.42C469.075 114.894 467.664 103.579 465.806 92.8542C465.202 89.3682 464.916 85.4422 463.915 82.0892C463.616 81.0862 463.552 80.8842 462.731 80.2812C461.031 84.8372 460.626 90.2562 459.836 95.0552C458.158 105.251 456.742 115.623 454.105 125.624Z" fill="#0062AE"/>
<path d="M842.522 50.3214C843.457 50.1934 844.399 50.1243 845.343 50.1143C853.327 49.9823 865.277 52.0344 871.108 57.8554C877.959 64.6944 876.55 75.8634 876.689 84.7544C869.595 84.6344 862.499 84.6273 855.405 84.7343C855.486 81.9483 855.731 79.0154 855.449 76.2414C855.219 73.9814 854.438 71.5923 852.576 70.1643C849.093 67.4923 843.436 68.3703 839.348 68.7683C838.961 69.0163 838.577 69.2704 838.198 69.5304C835.811 71.1804 834.246 73.0883 833.805 76.0163C832.42 85.2053 833.308 95.7024 833.302 105.03C833.296 115.873 832.656 127.184 833.518 137.974C833.671 139.887 833.805 143.242 835.107 144.718C837.037 146.906 839.565 147.916 842.444 148.032C845.594 148.159 850.334 148.011 852.676 145.673C857.707 140.651 855.86 125.687 855.792 118.699L846.337 118.64C846.414 112.955 846.363 107.269 846.184 101.586L856.977 101.536L877.113 101.594C877.254 113.022 878.478 136.647 876.128 146.894C875.375 150.176 873.95 153.4 871.859 156.052C867.358 161.762 860.275 164.208 853.296 165.13C842.734 166.525 828.122 166.686 819.379 159.573C814.514 155.615 812.083 149.311 811.543 143.198C810.525 131.651 811.44 119.463 811.43 107.854C811.422 97.3983 810.231 81.7084 811.931 71.7174C812.727 67.0414 814.425 62.2434 817.573 58.6294C823.775 51.5124 833.792 51.0134 842.522 50.3214Z" fill="#0062AE"/>
<path d="M293.204 51.3039C293.999 51.1319 293.725 51.1578 294.491 51.1128C304.665 50.5168 316.666 50.6629 324.598 58.1349C333.332 66.3639 332.404 78.6718 332.499 89.6078L309.32 89.6158C309.285 84.4818 310.007 74.4969 306.382 70.4809C304.826 68.7569 302.01 68.4048 299.81 68.3528C297.25 68.2928 294.573 68.9129 292.725 70.7879C290.903 72.6379 290.467 75.6108 290.148 78.0888C289.175 85.6618 289.711 93.7948 289.71 101.443C289.708 112.306 289.411 123.287 289.9 134.134C290.145 139.546 290.338 142.651 294.53 146.464C297.288 146.905 300.525 147.423 303.223 146.441C312.288 143.142 307.081 133.383 309.719 127.554L310.976 127.385C318.154 127.448 325.322 127.529 332.498 127.305C332.445 136.823 333.217 146.114 327.638 154.425C323.626 160.401 317.851 163.228 310.974 164.513C300.574 166.458 285.391 167.089 276.356 160.595C271.8 157.32 268.45 151.732 267.762 146.152C266.393 135.039 267.388 122.793 267.365 111.567C267.342 100.468 266.219 79.6628 268.032 69.4648C268.623 66.1398 270.263 62.4559 272.389 59.8299C277.302 53.7569 285.89 52.1429 293.204 51.3039Z" fill="#0062AE"/>
<path d="M650.201 51.8374C660.161 52.4824 670.338 52.0674 680.331 52.1064C688.41 52.1374 697.417 52.8964 705.354 51.7344C705.318 58.0654 705.347 64.3974 705.443 70.7274C694.081 70.6264 682.718 70.6054 671.355 70.6644C671.388 79.6564 671.319 88.6474 671.149 97.6374L700.493 97.6664C700.332 103.967 700.336 110.271 700.505 116.572C690.797 116.377 681.041 116.477 671.331 116.581L671.269 137.231C671.265 139.726 671.248 142.222 671.219 144.717L705.292 144.668C704.986 151.143 705.294 157.732 705.37 164.218C693.287 164.33 681.202 164.331 669.119 164.221C662.607 164.202 655.894 163.851 649.419 164.534C649.724 135.848 649.503 107.145 649.449 78.4594C649.441 74.4614 648.702 55.5224 649.482 52.8534C649.599 52.4554 649.961 52.1754 650.201 51.8374Z" fill="#0062AE"/>
<path d="M895.839 51.6807L952.374 51.8487C952.347 58.1337 952.312 64.4087 952.537 70.6917L917.092 70.5787C917.147 79.6017 917.138 88.6237 917.064 97.6467C926.935 97.3537 936.855 97.5897 946.732 97.6257C945.551 103.402 946.341 110.341 946.501 116.245L917.38 116.25C917.081 121.616 917.233 127.104 917.19 132.482C917.307 136.538 917.083 140.621 916.961 144.677C928.752 144.615 940.544 144.656 952.334 144.8C952.093 151.209 952.277 157.647 952.389 164.057C944.395 163.191 935.925 163.702 927.864 163.706C917.221 163.712 906.4 163.315 895.794 164.176L895.839 51.6807Z" fill="#0062AE"/>
<path d="M1050.4 51.4424C1057.25 52.2034 1064.72 51.6684 1071.63 51.6684C1084.14 51.6694 1096.67 51.8544 1109.17 51.5194C1109.22 57.2174 1110.1 64.5934 1108.58 70.0804C1106.52 77.5034 1101.47 85.2224 1098 92.1914C1089.13 109.589 1080.41 127.06 1071.83 144.603C1084.8 144.436 1097.79 144.541 1110.76 144.557C1110.73 150.861 1110.74 157.165 1110.79 163.469C1109.04 164.464 1055.31 163.629 1048.29 163.74C1048.43 158.254 1047.52 152.048 1048.7 146.694C1050.32 139.316 1057.3 127.424 1060.77 120.378C1068.99 103.871 1077.11 87.3084 1085.11 70.6884C1073.48 70.5994 1061.86 70.5874 1050.24 70.6534C1050.54 64.2824 1050.37 57.8254 1050.4 51.4424Z" fill="#0062AE"/>
<path d="M582.277 52.3021C589.652 52.3221 597.027 52.2761 604.401 52.1641L604.289 144.839C614.923 144.277 625.841 144.711 636.502 144.706C636.081 151.099 636.332 157.618 636.364 164.024C632.279 164.795 627.203 164.26 622.991 164.25C609.482 164.216 595.798 163.341 582.323 164.116C582.44 126.87 582.963 89.5371 582.277 52.3021Z" fill="#0062AE"/>
<path d="M514.329 52.2908C521.783 52.4058 529.238 52.3687 536.69 52.1777C537.056 82.9597 536.558 113.842 536.553 144.636C547.281 144.5 558.023 144.63 568.752 144.651L568.775 164.272C562.359 162.938 554.661 163.708 548.094 163.722C537.004 163.746 525.857 163.557 514.778 164.058C513.782 150.613 514.404 136.734 514.423 123.247C514.511 99.5948 514.48 75.9428 514.329 52.2908Z" fill="#0062AE"/>
<defs>
<linearGradient id="paint0_linear_543_1159" x1="53.9362" y1="147.838" x2="178.587" y2="65.0441" gradientUnits="userSpaceOnUse">
<stop stop-color="#00529B"/>
<stop offset="1" stop-color="#0290D7"/>
</linearGradient>
<linearGradient id="paint1_linear_543_1159" x1="113.287" y1="50.8027" x2="113.287" y2="178.521" gradientUnits="userSpaceOnUse">
<stop stop-color="#74D1F6"/>
<stop offset="1" stop-color="#BAE9FB"/>
</linearGradient>
<linearGradient id="paint2_linear_543_1159" x1="113.371" y1="110.096" x2="127.086" y2="94.8547" gradientUnits="userSpaceOnUse">
<stop stop-color="#00529A"/>
<stop offset="1" stop-color="#0092DB"/>
</linearGradient>
<linearGradient id="paint3_linear_543_1159" x1="113.563" y1="190.173" x2="112.726" y2="153.977" gradientUnits="userSpaceOnUse">
<stop stop-color="#74D1F6"/>
<stop offset="1" stop-color="#BAE9FB"/>
</linearGradient>
<linearGradient id="paint4_linear_543_1159" x1="45.1986" y1="197.342" x2="192.769" y2="27.7195" gradientUnits="userSpaceOnUse">
<stop stop-color="#0162AD"/>
<stop offset="1" stop-color="#008AD2"/>
</linearGradient>
<linearGradient id="paint5_linear_543_1159" x1="85.7556" y1="40.2091" x2="144.387" y2="1.00497" gradientUnits="userSpaceOnUse">
<stop stop-color="#014E95"/>
<stop offset="1" stop-color="#00A3EC"/>
</linearGradient>
<linearGradient id="paint6_linear_543_1159" x1="14.2842" y1="60.1206" x2="42.3403" y2="57.5008" gradientUnits="userSpaceOnUse">
<stop stop-color="#015FAA"/>
<stop offset="1" stop-color="#0085D0"/>
</linearGradient>
<linearGradient id="paint7_linear_543_1159" x1="7.15048" y1="88.2623" x2="34.8166" y2="85.4401" gradientUnits="userSpaceOnUse">
<stop stop-color="#015DA8"/>
<stop offset="1" stop-color="#0074BF"/>
</linearGradient>
<linearGradient id="paint8_linear_543_1159" x1="209.014" y1="120.749" x2="208.476" y2="120.626" gradientUnits="userSpaceOnUse">
<stop stop-color="#010002" stop-opacity="0"/>
<stop offset="1" stop-color="#000201" stop-opacity="0.0470588"/>
</linearGradient>
</defs>
</svg>
